<svg xmlns="http://www.w3.org/2000/svg" version="1.1" xmlns:xlink="http://www.w3.org/1999/xlink" xmlns:svgjs="http://svgjs.dev/svgjs" width="1440" height="560" preserveAspectRatio="none" viewBox="0 0 1440 560"><g mask="url(&quot;#SvgjsMask1018&quot;)" fill="none"><path d="M-15.79 63.39C136.52 70.51 230.47 320.22 531.66 332.19 832.86 344.16 930.15 563.34 1079.12 568.3" stroke="rgba(163, 163, 163, 1)" stroke-width="2"></path><path d="M-193.24 162.53C-34.71 165.43 85.35 361.98 406.17 369.73 726.99 377.48 843.13 616.44 1005.58 621.48" stroke="rgba(163, 163, 163, 1)" stroke-width="2"></path><path d="M-3.67 341.15C128.23 332.63 220.66 82.02 458.01 83.55 695.37 85.08 758.44 521.71 919.7 562.13" stroke="rgba(163, 163, 163, 1)" stroke-width="2"></path><path d="M-38.47 205.89C102.82 215.45 245.86 474.45 453.94 485.89 662.02 497.33 633.14 590.03 700.15 592.27" stroke="rgba(163, 163, 163, 1)" stroke-width="2"></path><path d="M-100.88 269.07C43.34 264.91 219.2 45.66 433.31 50.67 647.41 55.68 579.28 489.74 700.4 572.09" stroke="rgba(163, 163, 163, 1)" stroke-width="2"></path></g><defs><mask id="SvgjsMask1018"><rect width="1440" height="560" fill="#ffffff"></rect></mask></defs></svg>