<svg width="1024" height="1024" viewBox="0 0 1024 1024" xmlns="http://www.w3.org/2000/svg" version="1.1"><g fill="#000000" fill_rule="evenodd"><path d="M 473 376 L 473 549 L 472 550 L 472 555 L 471 556 L 471 559 L 470 560 L 470 563 L 469 564 L 469 566 L 468 567 L 468 569 L 467 570 L 467 572 L 466 573 L 466 574 L 465 575 L 465 577 L 464 578 L 464 579 L 462 581 L 462 582 L 461 583 L 461 584 L 460 585 L 460 586 L 458 588 L 458 589 L 454 593 L 454 594 L 443 605 L 442 605 L 439 608 L 438 608 L 436 610 L 435 610 L 434 611 L 433 611 L 432 612 L 431 612 L 430 613 L 429 613 L 428 614 L 427 614 L 426 615 L 425 615 L 424 616 L 422 616 L 421 617 L 419 617 L 418 618 L 415 618 L 414 619 L 410 619 L 409 620 L 402 620 L 401 621 L 404 621 L 405 622 L 411 622 L 412 623 L 434 623 L 435 622 L 441 622 L 442 621 L 445 621 L 446 620 L 449 620 L 450 619 L 452 619 L 453 618 L 455 618 L 456 617 L 457 617 L 458 616 L 460 616 L 461 615 L 462 615 L 464 613 L 465 613 L 466 612 L 467 612 L 468 611 L 469 611 L 471 609 L 472 609 L 475 606 L 476 606 L 482 600 L 483 600 L 485 598 L 485 597 L 490 592 L 490 591 L 493 588 L 493 587 L 494 586 L 494 585 L 496 583 L 496 582 L 497 581 L 497 580 L 498 579 L 498 578 L 499 577 L 499 576 L 500 575 L 500 573 L 501 572 L 501 570 L 502 569 L 502 567 L 503 566 L 503 564 L 504 563 L 504 560 L 505 559 L 505 556 L 506 555 L 506 550 L 507 549 L 507 542 L 508 541 L 508 456 L 509 455 L 511 457 L 511 458 L 512 459 L 512 460 L 514 462 L 514 463 L 515 464 L 515 465 L 517 467 L 517 468 L 518 469 L 518 470 L 520 472 L 520 473 L 521 474 L 521 475 L 523 477 L 523 478 L 524 479 L 524 480 L 526 482 L 526 483 L 527 484 L 527 485 L 529 487 L 529 488 L 530 489 L 530 490 L 532 492 L 532 493 L 533 494 L 533 495 L 535 497 L 535 498 L 536 499 L 536 500 L 538 502 L 538 503 L 539 504 L 539 505 L 541 507 L 541 508 L 542 509 L 542 510 L 544 512 L 544 513 L 545 514 L 545 515 L 547 517 L 547 518 L 548 519 L 548 520 L 550 522 L 550 523 L 551 524 L 551 525 L 553 527 L 553 528 L 554 529 L 554 530 L 556 532 L 556 533 L 557 534 L 557 535 L 580 535 L 580 534 L 581 533 L 581 532 L 583 530 L 583 529 L 584 528 L 584 527 L 586 525 L 586 524 L 587 523 L 587 522 L 589 520 L 589 519 L 590 518 L 590 517 L 591 516 L 591 515 L 593 513 L 593 512 L 594 511 L 594 510 L 596 508 L 596 507 L 597 506 L 597 505 L 598 504 L 598 503 L 600 501 L 600 500 L 601 499 L 601 498 L 603 496 L 603 495 L 604 494 L 604 493 L 606 491 L 606 490 L 607 489 L 607 488 L 609 486 L 609 485 L 610 484 L 610 483 L 612 481 L 612 480 L 613 479 L 613 478 L 614 477 L 614 476 L 616 474 L 616 473 L 617 472 L 617 471 L 619 469 L 619 468 L 620 467 L 620 466 L 621 465 L 621 464 L 623 462 L 623 461 L 625 459 L 625 458 L 626 457 L 626 456 L 627 455 L 628 456 L 628 608 L 629 609 L 662 609 L 663 608 L 663 376 L 633 376 L 632 377 L 632 378 L 630 380 L 630 381 L 629 382 L 629 383 L 628 384 L 628 385 L 626 387 L 626 388 L 625 389 L 625 390 L 624 391 L 624 392 L 622 394 L 622 395 L 621 396 L 621 397 L 619 399 L 619 400 L 618 401 L 618 402 L 617 403 L 617 404 L 615 406 L 615 407 L 614 408 L 614 409 L 613 410 L 613 411 L 611 413 L 611 414 L 610 415 L 610 416 L 608 418 L 608 419 L 607 420 L 607 421 L 606 422 L 606 423 L 604 425 L 604 426 L 603 427 L 603 428 L 601 430 L 601 431 L 600 432 L 600 433 L 598 435 L 598 436 L 597 437 L 597 438 L 596 439 L 596 440 L 594 442 L 594 443 L 593 444 L 593 445 L 591 447 L 591 448 L 590 449 L 590 450 L 588 452 L 588 453 L 587 454 L 587 455 L 585 457 L 585 458 L 584 459 L 584 460 L 582 462 L 582 463 L 581 464 L 581 465 L 579 467 L 579 468 L 578 469 L 578 470 L 577 471 L 577 472 L 575 474 L 575 475 L 574 476 L 574 477 L 572 479 L 572 480 L 570 482 L 570 483 L 568 485 L 566 483 L 566 482 L 564 480 L 564 479 L 563 478 L 563 477 L 561 475 L 561 474 L 560 473 L 560 472 L 558 470 L 558 469 L 557 468 L 557 467 L 555 465 L 555 464 L 554 463 L 554 462 L 553 461 L 553 460 L 551 458 L 551 457 L 550 456 L 550 455 L 548 453 L 548 452 L 547 451 L 547 450 L 545 448 L 545 447 L 544 446 L 544 445 L 543 444 L 543 443 L 541 441 L 541 440 L 540 439 L 540 438 L 538 436 L 538 435 L 537 434 L 537 433 L 535 431 L 535 430 L 534 429 L 534 428 L 532 426 L 532 425 L 531 424 L 531 423 L 529 421 L 529 420 L 528 419 L 528 418 L 527 417 L 527 416 L 525 414 L 525 413 L 524 412 L 524 411 L 522 409 L 522 408 L 521 407 L 521 406 L 520 405 L 520 404 L 518 402 L 518 401 L 517 400 L 517 399 L 515 397 L 515 396 L 514 395 L 514 394 L 512 392 L 512 391 L 511 390 L 511 389 L 510 388 L 510 387 L 508 385 L 508 384 L 507 383 L 507 382 L 505 380 L 505 379 L 504 378 L 504 377 L 503 376 Z" /><path d="M 372 376 L 372 404 L 373 405 L 373 410 L 429 410 L 430 411 L 430 545 L 429 546 L 429 551 L 428 552 L 428 555 L 427 556 L 427 557 L 426 558 L 426 559 L 425 560 L 425 561 L 424 562 L 424 563 L 422 565 L 422 566 L 417 571 L 416 571 L 413 574 L 412 574 L 411 575 L 410 575 L 409 576 L 407 576 L 406 577 L 402 577 L 401 578 L 394 578 L 393 577 L 389 577 L 388 576 L 386 576 L 385 575 L 384 575 L 383 574 L 382 574 L 380 572 L 379 572 L 372 565 L 372 564 L 370 562 L 370 561 L 369 560 L 369 559 L 368 558 L 368 557 L 366 557 L 361 562 L 360 562 L 356 566 L 355 566 L 351 570 L 350 570 L 345 575 L 344 575 L 340 579 L 342 581 L 342 582 L 344 584 L 344 585 L 349 590 L 349 591 L 352 594 L 353 594 L 358 599 L 359 599 L 362 602 L 363 602 L 364 603 L 365 603 L 367 605 L 368 605 L 369 606 L 370 606 L 371 607 L 373 607 L 374 608 L 375 608 L 376 609 L 378 609 L 379 610 L 382 610 L 383 611 L 387 611 L 388 612 L 408 612 L 409 611 L 413 611 L 414 610 L 417 610 L 418 609 L 420 609 L 421 608 L 422 608 L 423 607 L 424 607 L 425 606 L 426 606 L 427 605 L 428 605 L 429 604 L 430 604 L 431 603 L 432 603 L 434 601 L 435 601 L 438 598 L 439 598 L 448 589 L 448 588 L 451 585 L 451 584 L 453 582 L 453 581 L 454 580 L 454 579 L 455 578 L 455 577 L 456 576 L 456 575 L 457 574 L 457 573 L 458 572 L 458 571 L 459 570 L 459 568 L 460 567 L 460 565 L 461 564 L 461 562 L 462 561 L 462 558 L 463 557 L 463 554 L 464 553 L 464 547 L 465 546 L 465 376 Z" /></g></svg>